# xmcd CD database file
#
# Track frame offsets:
#	150
#	18075
#	31512
#	44310
#	59275
#	78270
#	95825
#	110592
#	118747
#	141802
#	154797
#	171942
#
# Disc length: 2471 seconds
#
# Revision: 0
# Processed by: cddbd v1.5.1PL0 Copyright (c) Steve Scherf et al.
# Submitted via: CDex 1.40Release
#
DISCID=9309a50c
DTITLE=The Juke Joints - Look for you
DYEAR=1900
DGENRE=Blues
TTITLE0=saturday night
TTITLE1=sick and tired
TTITLE2=dancing shoes
TTITLE3=mississippi bullfrog
TTITLE4=nightrider
TTITLE5=next time you see me
TTITLE6=look for you
TTITLE7=my baby
TTITLE8=i got a dream
TTITLE9=low down girl
TTITLE10=let's move
TTITLE11=pushed to the wall
EXTD=ID3G: 0
EXTT0=
EXTT1=
EXTT2=
EXTT3=
EXTT4=
EXTT5=
EXTT6=
EXTT7=
EXTT8=
EXTT9=
EXTT10=
EXTT11=
PLAYORDER=
